<svg width="157" height="41" viewBox="0 0 157 41" fill="none" xmlns="http://www.w3.org/2000/svg">
<rect x="32.8398" y="2.00107" width="9.32113" height="5.43733" fill="white"/>
<rect x="32.8398" y="35.4018" width="9.32113" height="5.43733" fill="white"/>
<rect x="23" y="12.099" width="5.17841" height="18.6423" fill="white"/>
<rect x="46.8203" y="12.099" width="5.17841" height="18.6423" fill="white"/>
<rect x="28.1777" y="7.4384" width="4.66057" height="4.66057" fill="white"/>
<rect x="42.1621" y="7.4384" width="4.66057" height="4.66057" fill="white"/>
<rect x="42.1621" y="30.7412" width="4.66057" height="4.66057" fill="white"/>
<rect x="28.1777" y="30.7412" width="4.66057" height="4.66057" fill="white"/>
<path d="M6.5 3H1V40H6.5V23L12.5 40H19.5L11.5 19L19.5 3H12.5L6.5 14V3Z" fill="white" stroke="white"/>
<path d="M68.4649 7.5V1.5C66.4649 1.83333 61.9399 2.26254 60.4649 3C58.4647 4 57.4649 5 56.4649 7C55.4649 9 55.3334 11.5 55.9649 14.5C56.7246 18.1087 58.4999 20 60.4649 21.5C63.0849 23.5 71.3436 24.3787 73.4649 26.5C74.4649 27.5 74.9649 30.5 73.4649 32.5C72.2649 34.1 69.6316 34.1667 68.4649 34V40C69.9649 39.8333 73.4847 39.7274 74.9649 39C76.9999 38 77.4999 37.5 78.4649 36.5C79.7168 35.2028 81.4649 33 81.4649 30.5C81.4649 28 81.6288 25.117 79.9649 23C78 20.5 73.4649 19 70.9649 18C68.5977 17.0531 64.23 15.6894 63.4649 14.5C62.5 13 62.5 11 63.4649 10C64.707 8.71271 67.1316 7.66667 68.4649 7.5Z" fill="white" stroke="white"/>
<path d="M100.5 2.5H86V40H100.5V33.5H93V24H99V17.5H93V9H100.5V2.5Z" fill="white"/>
<path d="M113 3H107V39H121V34H113V3Z" fill="white"/>
<path d="M132 3H126.5V39H132V3Z" fill="white"/>
<path d="M113 3H107V39H121V34H113V3Z" stroke="white"/>
<path d="M132 3H126.5V39H132V3Z" stroke="white"/>
<path d="M150.936 15.1456H156.784V10.2722C156.784 7.3481 155.128 1.5 148.5 1.5C141.872 1.5 140.215 7.3481 140.215 10.2722V33.6646C140.215 35.1266 141.19 40 148.012 40C153.471 40 156.135 35.7764 156.784 33.6646V19.0443H148.5V24.4051H150.936V31.2278C150.936 32.6899 149.962 33.6646 148.012 33.6646C146.453 33.6646 145.738 32.0401 145.576 31.2278V10.2722C145.576 9.29747 146.063 8.32278 148.5 8.32278C150.449 8.32278 150.936 9.62236 150.936 10.2722V15.1456Z" fill="white"/>
</svg>
